<svg width="98" height="98" viewBox="0 0 98 98" fill="none" xmlns="http://www.w3.org/2000/svg">
<g id="404 error image">
<rect x="0.5" y="0.5" width="97" height="97" rx="48.5" stroke="#1AB370" stroke-dasharray="6 6"/>
<g id="Frame 449" filter="url(#filter0_i_1388_3214)">
<g id="Navbar icon">
<g id="grid-regular" clip-path="url(#clip0_1388_3214)">
<path id="Shape-Copy-7" d="M48.2625 37.9362L39.1607 41.4086C38.3424 41.7202 37.7998 42.5215 37.7998 43.4119V53.433C37.7998 54.2432 38.2505 54.9823 38.9594 55.3429L48.0612 59.9728C48.6519 60.2755 49.3477 60.2755 49.9385 59.9728L59.0402 55.3429C59.7535 54.9823 60.1998 54.2388 60.1998 53.433V43.4119C60.1998 42.5215 59.6572 41.7246 58.839 41.413L49.7372 37.9406C49.2646 37.7536 48.7394 37.7536 48.2625 37.9362ZM49.002 40.7007L57.4037 43.9061V43.955L49.002 47.4274L40.6003 43.955V43.9061L49.002 40.7007ZM50.4023 56.5493V49.9205L57.4037 47.0268V52.9878L50.4023 56.5493Z" fill="#1AB370"/>
</g>
</g>
<path id="Primary" d="M75.7429 24.0707L75.2561 24.4574C75.117 24.5648 74.9475 24.625 74.7736 24.625C74.3477 24.625 74 24.2812 74 23.8602V12.25C74 7.69531 77.7378 4 82.3448 4C86.9519 4 90.6897 7.69531 90.6897 12.25V23.8602C90.6897 24.2812 90.342 24.625 89.916 24.625C89.7422 24.625 89.5727 24.5648 89.4336 24.4574L88.9468 24.0707C88.3644 23.6109 87.5212 23.684 87.0301 24.2383L85.7045 25.7422C85.5611 25.9055 85.3481 26 85.1264 26C84.9048 26 84.6962 25.9055 84.5484 25.7422L83.3923 24.4316C82.8403 23.8043 81.8537 23.8043 81.2974 24.4316L80.1413 25.7422C79.9978 25.9055 79.7849 26 79.5632 26C79.3416 26 79.1329 25.9055 78.9852 25.7422L77.6596 24.2383C77.1684 23.684 76.3253 23.6109 75.7429 24.0707ZM80.954 12.25C80.954 11.8853 80.8075 11.5356 80.5467 11.2777C80.2858 11.0199 79.9321 10.875 79.5632 10.875C79.1944 10.875 78.8406 11.0199 78.5798 11.2777C78.3189 11.5356 78.1724 11.8853 78.1724 12.25C78.1724 12.6147 78.3189 12.9644 78.5798 13.2223C78.8406 13.4801 79.1944 13.625 79.5632 13.625C79.9321 13.625 80.2858 13.4801 80.5467 13.2223C80.8075 12.9644 80.954 12.6147 80.954 12.25ZM85.1264 13.625C85.4953 13.625 85.8491 13.4801 86.1099 13.2223C86.3707 12.9644 86.5172 12.6147 86.5172 12.25C86.5172 11.8853 86.3707 11.5356 86.1099 11.2777C85.8491 11.0199 85.4953 10.875 85.1264 10.875C84.7576 10.875 84.4038 11.0199 84.143 11.2777C83.8822 11.5356 83.7356 11.8853 83.7356 12.25C83.7356 12.6147 83.8822 12.9644 84.143 13.2223C84.4038 13.4801 84.7576 13.625 85.1264 13.625Z" fill="#0D5938"/>
</g>
</g>
<defs>
<filter id="filter0_i_1388_3214" x="7" y="-8" width="95.6895" height="99" filterUnits="userSpaceOnUse" color-interpolation-filters="sRGB">
<feFlood flood-opacity="0" result="BackgroundImageFix"/>
<feBlend mode="normal" in="SourceGraphic" in2="BackgroundImageFix" result="shape"/>
<feColorMatrix in="SourceAlpha" type="matrix" values="0 0 0 0 0 0 0 0 0 0 0 0 0 0 0 0 0 0 127 0" result="hardAlpha"/>
<feOffset dy="2"/>
<feGaussianBlur stdDeviation="2"/>
<feComposite in2="hardAlpha" operator="arithmetic" k2="-1" k3="1"/>
<feColorMatrix type="matrix" values="0 0 0 0 1 0 0 0 0 1 0 0 0 0 1 0 0 0 0.1 0"/>
<feBlend mode="normal" in2="shape" result="effect1_innerShadow_1388_3214"/>
</filter>
<clipPath id="clip0_1388_3214">
<rect width="22.4" height="22.4" fill="white" transform="translate(37.7998 37.7998)"/>
</clipPath>
</defs>
</svg>
