<!--
  - Sonatype Nexus (TM) Open Source Version
  - Copyright (c) 2008-present Sonatype, Inc.
  - All rights reserved. Includes the third-party code listed at http://links.sonatype.com/products/nexus/oss/attributions.
  -
  - This program and the accompanying materials are made available under the terms of the Eclipse Public License Version 1.0,
  - which accompanies this distribution and is available at http://www.eclipse.org/legal/epl-v10.html.
  -
  - Sonatype Nexus (TM) Professional Version is available from Sonatype, Inc. "Sonatype" and "Sonatype Nexus" are trademarks
  - of Sonatype, Inc. Apache Maven is a trademark of the Apache Software Foundation. M2eclipse is a trademark of the
  - Eclipse Foundation. All other trademarks are the property of their respective owners.
  -->

<svg width="306" height="37" viewBox="0 0 306 37" fill="none" xmlns="http://www.w3.org/2000/svg">
<path d="M34 15.72V19.14L25.96 23.84L23.92 25.03H23.91L20.99 26.74L18.06 25.03L16.02 23.83L8 19.14V15.73L11 17.48V17.51L18.93 22.13L20.98 23.33L20.99 23.34L21.01 23.33L23.05 22.14L30.99 17.51V17.48L34 15.72Z" fill="#05BB6D"/>
<path d="M34 21.23V24.65L25.96 29.35L23.92 30.54H23.91L20.99 32.25L18.06 30.54L16.02 29.35L8 24.65V21.24L11 22.99V23.02L18.93 27.64L20.98 28.84L20.99 28.85L21.01 28.84L23.05 27.65L30.99 23.02V22.99L34 21.23Z" fill="#1C1F2A"/>
<path d="M30.99 6.64001V11.99L23.05 16.62L21.01 17.81H21H20.99L18.94 16.61L11.01 11.99V6.64001H8V13.63L16.03 18.32L18.07 19.51L21 21.22L23.92 19.51L25.96 18.32L34 13.62V6.64001H30.99Z" fill="#1C1F2A"/>
<path d="M21.47 12.95V7.34C21.83 6.8 22.81 6.37 23.53 6.37C23.79 6.37 23.98 6.39 24.14 6.42V4.25C23.1 4.25 22.08 4.86 21.47 5.6V4.46H19.27V12.95H21.47Z" fill="#05B96C"/>
<path d="M42 14.448L43.1114 12.7102C43.8995 13.5184 45.4554 14.2661 46.9002 14.2661C48.345 14.2661 49.133 13.6599 49.133 12.7809C49.133 10.5783 42.3536 12.1545 42.3536 7.83019C42.3536 5.99136 43.9298 4.43542 46.7688 4.43542C48.6784 4.43542 50.1131 5.11236 51.1133 5.99136L50.0929 7.70895C49.4159 6.96129 48.1833 6.36519 46.7688 6.36519C45.4958 6.36519 44.6976 6.9714 44.6976 7.75947C44.6976 9.72964 51.4771 8.24443 51.4771 12.7102C51.4771 14.7107 49.8302 16.2161 46.8093 16.2161C44.8795 16.2161 43.1619 15.5897 42 14.448Z" fill="#1B1F2B"/>
<path d="M52.3159 10.3156C52.3159 7.08253 54.4983 4.43542 58.0749 4.43542C61.6515 4.43542 63.8339 7.08253 63.8339 10.3156C63.8339 13.5488 61.6515 16.2161 58.0749 16.2161C54.4983 16.2161 52.3159 13.5184 52.3159 10.3156ZM61.308 10.3156C61.308 8.33536 60.1663 6.59757 58.0749 6.59757C55.9835 6.59757 54.8418 8.33536 54.8418 10.3156C54.8418 12.2959 56.0037 14.0539 58.0749 14.0539C60.1461 14.0539 61.308 12.3161 61.308 10.3156Z" fill="#1B1F2B"/>
<path d="M73.2296 15.9333V8.92146C73.2296 7.15335 72.3203 6.59766 70.9564 6.59766C69.7237 6.59766 68.6528 7.34532 68.0769 8.08287V15.9333H65.6318V4.70831H68.0769V6.21373C68.8245 5.33473 70.2794 4.42542 72.0475 4.42542C74.4623 4.42542 75.6747 5.72876 75.6747 8.02225V15.9232H73.2397L73.2296 15.9333Z" fill="#1B1F2B"/>
<path d="M85.1218 15.9331V14.7005C84.2832 15.6805 82.9597 16.216 81.4745 16.216C79.6659 16.216 77.5947 14.9632 77.5947 12.4979C77.5947 9.89121 79.6356 8.83034 81.4745 8.83034C83.0102 8.83034 84.2832 9.31531 85.1218 10.2751V8.59796C85.1218 7.29461 84.0306 6.50654 82.4949 6.50654C81.2421 6.50654 80.1206 6.9713 79.1709 7.95134L78.1504 6.25396C79.4538 5.00113 81.0804 4.44543 82.8687 4.44543C85.3744 4.44543 87.5568 5.4962 87.5568 8.48682V15.9432H85.1218V15.9331ZM85.1218 13.3769V11.6593C84.5358 10.8915 83.4952 10.4974 82.4545 10.4974C81.0804 10.4974 80.0398 11.3057 80.0398 12.5181C80.0398 13.7305 81.0905 14.5388 82.4545 14.5388C83.5053 14.5388 84.5459 14.1448 85.1218 13.3769Z" fill="#1B1F2B"/>
<path d="M91.0016 13.3164V6.82993H89.1426V4.71831H91.0016V1.64685H93.4467V4.71831H95.7199V6.82993H93.4467V12.7102C93.4467 13.478 93.8205 14.0539 94.5176 14.0539C94.9824 14.0539 95.3966 13.8417 95.5886 13.6397L96.1746 15.4987C95.73 15.8927 95.0127 16.2161 93.9013 16.2161C91.9918 16.2161 91.0218 15.1956 91.0218 13.3063L91.0016 13.3164Z" fill="#1B1F2B"/>
<path d="M98.1347 18.1459C98.3872 18.2671 98.7813 18.3278 99.0642 18.3278C99.8522 18.3278 100.368 18.0954 100.691 17.3477L101.247 16.0747L96.6191 4.71838H99.246L102.52 13.1245L105.793 4.71838H108.4L102.984 17.964C102.216 19.8635 100.893 20.4697 99.1551 20.5C98.8015 20.5 98.1044 20.4293 97.781 20.3384L98.1246 18.156L98.1347 18.1459Z" fill="#1B1F2B"/>
<path d="M112.108 14.3772V20.2069H109.663V4.70822H112.108V6.24395C112.947 5.13256 114.25 4.43542 115.705 4.43542C118.615 4.43542 120.676 6.61777 120.676 10.3156C120.676 14.0135 118.605 16.2161 115.705 16.2161C114.29 16.2161 113.038 15.5695 112.108 14.3772ZM118.17 10.3156C118.17 8.1333 116.917 6.59757 114.988 6.59757C113.846 6.59757 112.664 7.24419 112.108 8.08278V12.5182C112.644 13.3568 113.846 14.0539 114.988 14.0539C116.917 14.0539 118.17 12.498 118.17 10.3156Z" fill="#1B1F2B"/>
<path d="M121.999 10.3156C121.999 7.06233 124.374 4.43542 127.688 4.43542C131.002 4.43542 133.194 6.9916 133.194 10.5278V11.134H124.556C124.737 12.8112 126 14.2257 128.112 14.2257C129.223 14.2257 130.506 13.7811 131.315 12.9729L132.426 14.5793C131.284 15.6503 129.638 16.2262 127.869 16.2262C124.475 16.2262 121.989 13.8822 121.989 10.3257L121.999 10.3156ZM127.667 6.43591C125.596 6.43591 124.626 8.04236 124.535 9.38613H130.85C130.779 8.06257 129.87 6.43591 127.667 6.43591Z" fill="#1B1F2B"/>
<path d="M148.147 15.9331V9.15365C148.147 7.59772 147.339 7.06223 146.076 7.06223C144.914 7.06223 144.035 7.70886 143.52 8.36558V15.9432H140.569V4.71823H143.52V6.16302C144.237 5.32444 145.631 4.44543 147.45 4.44543C149.935 4.44543 151.117 5.83971 151.117 8.02206V15.9432H148.147V15.9331Z" fill="#05BB6D"/>
<path d="M152.259 10.3156C152.259 7.06233 154.674 4.43542 158.069 4.43542C161.464 4.43542 163.696 6.94109 163.696 10.5884V11.2856H155.351C155.563 12.6597 156.674 13.7912 158.584 13.7912C159.534 13.7912 160.837 13.3972 161.554 12.7001L162.878 14.65C161.767 15.6705 159.999 16.206 158.251 16.206C154.836 16.206 152.259 13.9024 152.259 10.3055V10.3156ZM158.069 6.85016C156.23 6.85016 155.442 8.12319 155.331 9.24468H160.857C160.766 8.17371 160.019 6.85016 158.069 6.85016Z" fill="#05BB6D"/>
<path d="M171.829 15.9332L169.273 12.1444L166.697 15.9332H163.423L167.424 10.1743L163.656 4.71838H166.96L169.283 8.15357L171.587 4.71838H174.891L171.152 10.1743L175.153 15.9332H171.85H171.829Z" fill="#05BB6D"/>
<path d="M183.58 15.9332V14.5187C182.812 15.3573 181.468 16.2161 179.63 16.2161C177.164 16.2161 176.002 14.8723 176.002 12.6799V4.70825H178.953V11.518C178.953 13.0739 179.761 13.5892 181.024 13.5892C182.166 13.5892 183.065 12.9628 183.58 12.3162V4.71835H186.53V15.9433H183.58V15.9332Z" fill="#05BB6D"/>
<path d="M187.904 14.4783L189.187 12.3363C190.026 13.1244 191.673 13.8923 193.067 13.8923C194.34 13.8923 194.946 13.4073 194.946 12.7102C194.946 10.8713 188.298 12.3869 188.298 7.97164C188.298 6.09239 189.925 4.43542 192.895 4.43542C194.775 4.43542 196.29 5.08205 197.401 5.97115L196.219 8.06257C195.542 7.36543 194.269 6.75922 192.895 6.75922C191.824 6.75922 191.127 7.22398 191.127 7.8504C191.127 9.49726 197.795 8.10299 197.795 12.6394C197.795 14.7107 196.027 16.2161 192.915 16.2161C190.965 16.2161 189.086 15.5695 187.894 14.4783H187.904Z" fill="#05BB6D"/>
<path d="M204.797 15.9333V4.70831H207.748V6.21373C208.556 5.23369 209.93 4.42542 211.324 4.42542V7.30491C211.112 7.25439 210.859 7.23418 210.516 7.23418C209.536 7.23418 208.243 7.78987 207.748 8.51732V15.9232H204.797V15.9333Z" fill="#05BB6D"/>
<path d="M211.87 10.3156C211.87 7.06233 214.284 4.43542 217.679 4.43542C221.074 4.43542 223.307 6.94109 223.307 10.5884V11.2856H214.961C215.173 12.6597 216.285 13.7912 218.194 13.7912C219.144 13.7912 220.447 13.3972 221.165 12.7001L222.488 14.65C221.377 15.6705 219.609 16.206 217.861 16.206C214.446 16.206 211.87 13.9024 211.87 10.3055V10.3156ZM217.679 6.85016C215.84 6.85016 215.052 8.12319 214.941 9.24468H220.468C220.377 8.17371 219.629 6.85016 217.679 6.85016Z" fill="#05BB6D"/>
<path d="M227.692 14.4985V20.217H224.742V4.71832H227.692V6.13281C228.551 5.04163 229.783 4.43542 231.157 4.43542C234.037 4.43542 236.128 6.57736 236.128 10.3156C236.128 14.0539 234.037 16.2161 231.157 16.2161C229.834 16.2161 228.621 15.6604 227.692 14.4985ZM233.077 10.3156C233.077 8.38588 231.915 7.06233 230.218 7.06233C229.268 7.06233 228.197 7.59781 227.682 8.33536V12.2858C228.167 13.0032 229.258 13.5892 230.218 13.5892C231.915 13.5892 233.077 12.2656 233.077 10.3156Z" fill="#05BB6D"/>
<path d="M237.098 10.3156C237.098 7.13305 239.331 4.43542 243.019 4.43542C246.707 4.43542 248.97 7.13305 248.97 10.3156C248.97 13.4982 246.737 16.2161 243.019 16.2161C239.301 16.2161 237.098 13.4982 237.098 10.3156ZM245.908 10.3156C245.908 8.57785 244.888 7.06233 243.029 7.06233C241.17 7.06233 240.17 8.57785 240.17 10.3156C240.17 12.0534 241.19 13.5892 243.029 13.5892C244.868 13.5892 245.908 12.0736 245.908 10.3156Z" fill="#05BB6D"/>
<path d="M249.626 14.4783L250.909 12.3363C251.748 13.1244 253.395 13.8923 254.789 13.8923C256.062 13.8923 256.668 13.4073 256.668 12.7102C256.668 10.8713 250.02 12.3869 250.02 7.97164C250.02 6.09239 251.647 4.43542 254.617 4.43542C256.497 4.43542 258.012 5.08205 259.124 5.97115L257.941 8.06257C257.265 7.36543 255.991 6.75922 254.617 6.75922C253.546 6.75922 252.849 7.22398 252.849 7.8504C252.849 9.49726 259.518 8.10299 259.518 12.6394C259.518 14.7107 257.75 16.2161 254.638 16.2161C252.688 16.2161 250.808 15.5695 249.616 14.4783H249.626Z" fill="#05BB6D"/>
<path d="M260.821 1.7378C260.821 0.75776 261.609 0 262.559 0C263.508 0 264.327 0.767864 264.327 1.7378C264.327 2.70773 263.539 3.50591 262.559 3.50591C261.579 3.50591 260.821 2.71783 260.821 1.7378ZM261.104 15.9332V4.70822H264.054V15.9332H261.104Z" fill="#05BB6D"/>
<path d="M267.469 13.1244V7.29469H265.61V4.71831H267.469V1.64685H270.419V4.71831H272.692V7.29469H270.419V12.3363C270.419 13.0537 270.793 13.5892 271.44 13.5892C271.884 13.5892 272.298 13.4275 272.46 13.2456L273.086 15.4987C272.642 15.8927 271.854 16.2161 270.621 16.2161C268.55 16.2161 267.459 15.1451 267.459 13.1244H267.469Z" fill="#05BB6D"/>
<path d="M272.955 10.3156C272.955 7.13305 275.188 4.43542 278.876 4.43542C282.563 4.43542 284.827 7.13305 284.827 10.3156C284.827 13.4982 282.594 16.2161 278.876 16.2161C275.158 16.2161 272.955 13.4982 272.955 10.3156ZM281.765 10.3156C281.765 8.57785 280.745 7.06233 278.886 7.06233C277.027 7.06233 276.027 8.57785 276.027 10.3156C276.027 12.0534 277.047 13.5892 278.886 13.5892C280.725 13.5892 281.765 12.0736 281.765 10.3156Z" fill="#05BB6D"/>
<path d="M285.989 15.9333V4.70831H288.939V6.21373C289.747 5.23369 291.121 4.42542 292.516 4.42542V7.30491C292.303 7.25439 292.051 7.23418 291.707 7.23418C290.727 7.23418 289.434 7.78987 288.939 8.51732V15.9232H285.989V15.9333Z" fill="#05BB6D"/>
<path d="M295.052 17.6811C295.304 17.8024 295.698 17.863 295.981 17.863C296.749 17.863 297.264 17.6508 297.537 17.0547L297.951 16.0747L293.395 4.71838H296.557L299.487 12.5284L302.437 4.71838H305.6L300.326 17.7721C299.487 19.8837 298.002 20.4394 296.072 20.4899C295.749 20.4899 294.981 20.4192 294.627 20.308L295.041 17.6811H295.052Z" fill="#05BB6D"/>
<path d="M45.4102 23.9336C46.5156 23.9336 47.3223 24.1504 47.8301 24.584C48.3418 25.0137 48.5977 25.6309 48.5977 26.4355C48.5977 26.7988 48.5371 27.1445 48.416 27.4727C48.2988 27.7969 48.1074 28.084 47.8418 28.334C47.5762 28.5801 47.2266 28.7754 46.793 28.9199C46.3633 29.0605 45.8359 29.1309 45.2109 29.1309H44.168V32.5H43.1719V23.9336H45.4102ZM45.3164 24.7832H44.168V28.2754H45.0996C45.6465 28.2754 46.1016 28.2168 46.4648 28.0996C46.832 27.9824 47.1074 27.793 47.291 27.5312C47.4746 27.2656 47.5664 26.9141 47.5664 26.4766C47.5664 25.9062 47.3848 25.4824 47.0215 25.2051C46.6582 24.9238 46.0898 24.7832 45.3164 24.7832ZM53.1621 25.9609C53.291 25.9609 53.4258 25.9688 53.5664 25.9844C53.707 25.9961 53.832 26.0137 53.9414 26.0371L53.8184 26.9395C53.7129 26.9121 53.5957 26.8906 53.4668 26.875C53.3379 26.8594 53.2168 26.8516 53.1035 26.8516C52.8457 26.8516 52.6016 26.9043 52.3711 27.0098C52.1445 27.1113 51.9453 27.2598 51.7734 27.4551C51.6016 27.6465 51.4668 27.8789 51.3691 28.1523C51.2715 28.4219 51.2227 28.7227 51.2227 29.0547V32.5H50.2441V26.0781H51.0527L51.1582 27.2617H51.1992C51.332 27.0234 51.4922 26.8066 51.6797 26.6113C51.8672 26.4121 52.084 26.2539 52.3301 26.1367C52.5801 26.0195 52.8574 25.9609 53.1621 25.9609ZM60.6914 29.2773C60.6914 29.8047 60.623 30.2754 60.4863 30.6895C60.3496 31.1035 60.1523 31.4531 59.8945 31.7383C59.6367 32.0234 59.3242 32.2422 58.957 32.3945C58.5938 32.543 58.1816 32.6172 57.7207 32.6172C57.291 32.6172 56.8965 32.543 56.5371 32.3945C56.1816 32.2422 55.873 32.0234 55.6113 31.7383C55.3535 31.4531 55.1523 31.1035 55.0078 30.6895C54.8672 30.2754 54.7969 29.8047 54.7969 29.2773C54.7969 28.5742 54.916 27.9766 55.1543 27.4844C55.3926 26.9883 55.7324 26.6113 56.1738 26.3535C56.6191 26.0918 57.1484 25.9609 57.7617 25.9609C58.3477 25.9609 58.8594 26.0918 59.2969 26.3535C59.7383 26.6152 60.0801 26.9941 60.3223 27.4902C60.5684 27.9824 60.6914 28.5781 60.6914 29.2773ZM55.8047 29.2773C55.8047 29.793 55.873 30.2402 56.0098 30.6191C56.1465 30.998 56.3574 31.291 56.6426 31.498C56.9277 31.7051 57.2949 31.8086 57.7441 31.8086C58.1895 31.8086 58.5547 31.7051 58.8398 31.498C59.1289 31.291 59.3418 30.998 59.4785 30.6191C59.6152 30.2402 59.6836 29.793 59.6836 29.2773C59.6836 28.7656 59.6152 28.3242 59.4785 27.9531C59.3418 27.5781 59.1309 27.2891 58.8457 27.0859C58.5605 26.8828 58.1914 26.7812 57.7383 26.7812C57.0703 26.7812 56.5801 27.002 56.2676 27.4434C55.959 27.8848 55.8047 28.4961 55.8047 29.2773Z" fill="#6A6A62"/>
</svg>
