<!--
  - Sonatype Nexus (TM) Open Source Version
  - Copyright (c) 2008-present Sonatype, Inc.
  - All rights reserved. Includes the third-party code listed at http://links.sonatype.com/products/nexus/oss/attributions.
  -
  - This program and the accompanying materials are made available under the terms of the Eclipse Public License Version 1.0,
  - which accompanies this distribution and is available at http://www.eclipse.org/legal/epl-v10.html.
  -
  - Sonatype Nexus (TM) Professional Version is available from Sonatype, Inc. "Sonatype" and "Sonatype Nexus" are trademarks
  - of Sonatype, Inc. Apache Maven is a trademark of the Apache Software Foundation. M2eclipse is a trademark of the
  - Eclipse Foundation. All other trademarks are the property of their respective owners.
  -->

<svg width="306" height="37" viewBox="0 0 306 37" fill="none" xmlns="http://www.w3.org/2000/svg">
<path d="M34 15.72V19.14L25.96 23.84L23.92 25.03H23.91L20.99 26.74L18.06 25.03L16.02 23.83L8 19.14V15.73L11 17.48V17.51L18.93 22.13L20.98 23.33L20.99 23.34L21.01 23.33L23.05 22.14L30.99 17.51V17.48L34 15.72Z" fill="#05BB6D"/>
<path d="M34 21.23V24.65L25.96 29.35L23.92 30.54H23.91L20.99 32.25L18.06 30.54L16.02 29.35L8 24.65V21.24L11 22.99V23.02L18.93 27.64L20.98 28.84L20.99 28.85L21.01 28.84L23.05 27.65L30.99 23.02V22.99L34 21.23Z" fill="#1C1F2A"/>
<path d="M30.99 6.64001V11.99L23.05 16.62L21.01 17.81H21H20.99L18.94 16.61L11.01 11.99V6.64001H8V13.63L16.03 18.32L18.07 19.51L21 21.22L23.92 19.51L25.96 18.32L34 13.62V6.64001H30.99Z" fill="#1C1F2A"/>
<path d="M21.47 12.95V7.34C21.83 6.8 22.81 6.37 23.53 6.37C23.79 6.37 23.98 6.39 24.14 6.42V4.25C23.1 4.25 22.08 4.86 21.47 5.6V4.46H19.27V12.95H21.47Z" fill="#05B96C"/>
<path d="M42 14.448L43.1114 12.7102C43.8995 13.5184 45.4554 14.2661 46.9002 14.2661C48.345 14.2661 49.133 13.6599 49.133 12.7809C49.133 10.5783 42.3536 12.1545 42.3536 7.83019C42.3536 5.99136 43.9298 4.43542 46.7688 4.43542C48.6784 4.43542 50.1131 5.11236 51.1133 5.99136L50.0929 7.70895C49.4159 6.96129 48.1833 6.36519 46.7688 6.36519C45.4958 6.36519 44.6976 6.9714 44.6976 7.75947C44.6976 9.72964 51.4771 8.24443 51.4771 12.7102C51.4771 14.7107 49.8302 16.2161 46.8093 16.2161C44.8795 16.2161 43.1619 15.5897 42 14.448Z" fill="#1B1F2B"/>
<path d="M52.3159 10.3156C52.3159 7.08253 54.4983 4.43542 58.0749 4.43542C61.6515 4.43542 63.8339 7.08253 63.8339 10.3156C63.8339 13.5488 61.6515 16.2161 58.0749 16.2161C54.4983 16.2161 52.3159 13.5184 52.3159 10.3156ZM61.308 10.3156C61.308 8.33536 60.1663 6.59757 58.0749 6.59757C55.9835 6.59757 54.8418 8.33536 54.8418 10.3156C54.8418 12.2959 56.0037 14.0539 58.0749 14.0539C60.1461 14.0539 61.308 12.3161 61.308 10.3156Z" fill="#1B1F2B"/>
<path d="M73.2296 15.9333V8.92146C73.2296 7.15335 72.3203 6.59766 70.9564 6.59766C69.7237 6.59766 68.6528 7.34532 68.0769 8.08287V15.9333H65.6318V4.70831H68.0769V6.21373C68.8245 5.33473 70.2794 4.42542 72.0475 4.42542C74.4623 4.42542 75.6747 5.72876 75.6747 8.02225V15.9232H73.2397L73.2296 15.9333Z" fill="#1B1F2B"/>
<path d="M85.1218 15.9331V14.7005C84.2832 15.6805 82.9597 16.216 81.4745 16.216C79.6659 16.216 77.5947 14.9632 77.5947 12.4979C77.5947 9.89121 79.6356 8.83034 81.4745 8.83034C83.0102 8.83034 84.2832 9.31531 85.1218 10.2751V8.59796C85.1218 7.29461 84.0306 6.50654 82.4949 6.50654C81.2421 6.50654 80.1206 6.9713 79.1709 7.95134L78.1504 6.25396C79.4538 5.00113 81.0804 4.44543 82.8687 4.44543C85.3744 4.44543 87.5568 5.4962 87.5568 8.48682V15.9432H85.1218V15.9331ZM85.1218 13.3769V11.6593C84.5358 10.8915 83.4952 10.4974 82.4545 10.4974C81.0804 10.4974 80.0398 11.3057 80.0398 12.5181C80.0398 13.7305 81.0905 14.5388 82.4545 14.5388C83.5053 14.5388 84.5459 14.1448 85.1218 13.3769Z" fill="#1B1F2B"/>
<path d="M91.0016 13.3164V6.82993H89.1426V4.71831H91.0016V1.64685H93.4467V4.71831H95.7199V6.82993H93.4467V12.7102C93.4467 13.478 93.8205 14.0539 94.5176 14.0539C94.9824 14.0539 95.3966 13.8417 95.5886 13.6397L96.1746 15.4987C95.73 15.8927 95.0127 16.2161 93.9013 16.2161C91.9918 16.2161 91.0218 15.1956 91.0218 13.3063L91.0016 13.3164Z" fill="#1B1F2B"/>
<path d="M98.1347 18.1459C98.3872 18.2671 98.7813 18.3278 99.0642 18.3278C99.8522 18.3278 100.368 18.0954 100.691 17.3477L101.247 16.0747L96.6191 4.71838H99.246L102.52 13.1245L105.793 4.71838H108.4L102.984 17.964C102.216 19.8635 100.893 20.4697 99.1551 20.5C98.8015 20.5 98.1044 20.4293 97.781 20.3384L98.1246 18.156L98.1347 18.1459Z" fill="#1B1F2B"/>
<path d="M112.108 14.3772V20.2069H109.663V4.70822H112.108V6.24395C112.947 5.13256 114.25 4.43542 115.705 4.43542C118.615 4.43542 120.676 6.61777 120.676 10.3156C120.676 14.0135 118.605 16.2161 115.705 16.2161C114.29 16.2161 113.038 15.5695 112.108 14.3772ZM118.17 10.3156C118.17 8.1333 116.917 6.59757 114.988 6.59757C113.846 6.59757 112.664 7.24419 112.108 8.08278V12.5182C112.644 13.3568 113.846 14.0539 114.988 14.0539C116.917 14.0539 118.17 12.498 118.17 10.3156Z" fill="#1B1F2B"/>
<path d="M121.999 10.3156C121.999 7.06233 124.374 4.43542 127.688 4.43542C131.002 4.43542 133.194 6.9916 133.194 10.5278V11.134H124.556C124.737 12.8112 126 14.2257 128.112 14.2257C129.223 14.2257 130.506 13.7811 131.315 12.9729L132.426 14.5793C131.284 15.6503 129.638 16.2262 127.869 16.2262C124.475 16.2262 121.989 13.8822 121.989 10.3257L121.999 10.3156ZM127.667 6.43591C125.596 6.43591 124.626 8.04236 124.535 9.38613H130.85C130.779 8.06257 129.87 6.43591 127.667 6.43591Z" fill="#1B1F2B"/>
<path d="M148.147 15.9331V9.15365C148.147 7.59772 147.339 7.06223 146.076 7.06223C144.914 7.06223 144.035 7.70886 143.52 8.36558V15.9432H140.569V4.71823H143.52V6.16302C144.237 5.32444 145.631 4.44543 147.45 4.44543C149.935 4.44543 151.117 5.83971 151.117 8.02206V15.9432H148.147V15.9331Z" fill="#05BB6D"/>
<path d="M152.259 10.3156C152.259 7.06233 154.674 4.43542 158.069 4.43542C161.464 4.43542 163.696 6.94109 163.696 10.5884V11.2856H155.351C155.563 12.6597 156.674 13.7912 158.584 13.7912C159.534 13.7912 160.837 13.3972 161.554 12.7001L162.878 14.65C161.767 15.6705 159.999 16.206 158.251 16.206C154.836 16.206 152.259 13.9024 152.259 10.3055V10.3156ZM158.069 6.85016C156.23 6.85016 155.442 8.12319 155.331 9.24468H160.857C160.766 8.17371 160.019 6.85016 158.069 6.85016Z" fill="#05BB6D"/>
<path d="M171.829 15.9332L169.273 12.1444L166.697 15.9332H163.423L167.424 10.1743L163.656 4.71838H166.96L169.283 8.15357L171.587 4.71838H174.891L171.152 10.1743L175.153 15.9332H171.85H171.829Z" fill="#05BB6D"/>
<path d="M183.58 15.9332V14.5187C182.812 15.3573 181.468 16.2161 179.63 16.2161C177.164 16.2161 176.002 14.8723 176.002 12.6799V4.70825H178.953V11.518C178.953 13.0739 179.761 13.5892 181.024 13.5892C182.166 13.5892 183.065 12.9628 183.58 12.3162V4.71835H186.53V15.9433H183.58V15.9332Z" fill="#05BB6D"/>
<path d="M187.904 14.4783L189.187 12.3363C190.026 13.1244 191.673 13.8923 193.067 13.8923C194.34 13.8923 194.946 13.4073 194.946 12.7102C194.946 10.8713 188.298 12.3869 188.298 7.97164C188.298 6.09239 189.925 4.43542 192.895 4.43542C194.775 4.43542 196.29 5.08205 197.401 5.97115L196.219 8.06257C195.542 7.36543 194.269 6.75922 192.895 6.75922C191.824 6.75922 191.127 7.22398 191.127 7.8504C191.127 9.49726 197.795 8.10299 197.795 12.6394C197.795 14.7107 196.027 16.2161 192.915 16.2161C190.965 16.2161 189.086 15.5695 187.894 14.4783H187.904Z" fill="#05BB6D"/>
<path d="M204.797 15.9333V4.70831H207.748V6.21373C208.556 5.23369 209.93 4.42542 211.324 4.42542V7.30491C211.112 7.25439 210.859 7.23418 210.516 7.23418C209.536 7.23418 208.243 7.78987 207.748 8.51732V15.9232H204.797V15.9333Z" fill="#05BB6D"/>
<path d="M211.87 10.3156C211.87 7.06233 214.284 4.43542 217.679 4.43542C221.074 4.43542 223.307 6.94109 223.307 10.5884V11.2856H214.961C215.173 12.6597 216.285 13.7912 218.194 13.7912C219.144 13.7912 220.447 13.3972 221.165 12.7001L222.488 14.65C221.377 15.6705 219.609 16.206 217.861 16.206C214.446 16.206 211.87 13.9024 211.87 10.3055V10.3156ZM217.679 6.85016C215.84 6.85016 215.052 8.12319 214.941 9.24468H220.468C220.377 8.17371 219.629 6.85016 217.679 6.85016Z" fill="#05BB6D"/>
<path d="M227.692 14.4985V20.217H224.742V4.71832H227.692V6.13281C228.551 5.04163 229.783 4.43542 231.157 4.43542C234.037 4.43542 236.128 6.57736 236.128 10.3156C236.128 14.0539 234.037 16.2161 231.157 16.2161C229.834 16.2161 228.621 15.6604 227.692 14.4985ZM233.077 10.3156C233.077 8.38588 231.915 7.06233 230.218 7.06233C229.268 7.06233 228.197 7.59781 227.682 8.33536V12.2858C228.167 13.0032 229.258 13.5892 230.218 13.5892C231.915 13.5892 233.077 12.2656 233.077 10.3156Z" fill="#05BB6D"/>
<path d="M237.098 10.3156C237.098 7.13305 239.331 4.43542 243.019 4.43542C246.707 4.43542 248.97 7.13305 248.97 10.3156C248.97 13.4982 246.737 16.2161 243.019 16.2161C239.301 16.2161 237.098 13.4982 237.098 10.3156ZM245.908 10.3156C245.908 8.57785 244.888 7.06233 243.029 7.06233C241.17 7.06233 240.17 8.57785 240.17 10.3156C240.17 12.0534 241.19 13.5892 243.029 13.5892C244.868 13.5892 245.908 12.0736 245.908 10.3156Z" fill="#05BB6D"/>
<path d="M249.626 14.4783L250.909 12.3363C251.748 13.1244 253.395 13.8923 254.789 13.8923C256.062 13.8923 256.668 13.4073 256.668 12.7102C256.668 10.8713 250.02 12.3869 250.02 7.97164C250.02 6.09239 251.647 4.43542 254.617 4.43542C256.497 4.43542 258.012 5.08205 259.124 5.97115L257.941 8.06257C257.265 7.36543 255.991 6.75922 254.617 6.75922C253.546 6.75922 252.849 7.22398 252.849 7.8504C252.849 9.49726 259.518 8.10299 259.518 12.6394C259.518 14.7107 257.75 16.2161 254.638 16.2161C252.688 16.2161 250.808 15.5695 249.616 14.4783H249.626Z" fill="#05BB6D"/>
<path d="M260.821 1.7378C260.821 0.75776 261.609 0 262.559 0C263.508 0 264.327 0.767864 264.327 1.7378C264.327 2.70773 263.539 3.50591 262.559 3.50591C261.579 3.50591 260.821 2.71783 260.821 1.7378ZM261.104 15.9332V4.70822H264.054V15.9332H261.104Z" fill="#05BB6D"/>
<path d="M267.469 13.1244V7.29469H265.61V4.71831H267.469V1.64685H270.419V4.71831H272.692V7.29469H270.419V12.3363C270.419 13.0537 270.793 13.5892 271.44 13.5892C271.884 13.5892 272.298 13.4275 272.46 13.2456L273.086 15.4987C272.642 15.8927 271.854 16.2161 270.621 16.2161C268.55 16.2161 267.459 15.1451 267.459 13.1244H267.469Z" fill="#05BB6D"/>
<path d="M272.955 10.3156C272.955 7.13305 275.188 4.43542 278.876 4.43542C282.563 4.43542 284.827 7.13305 284.827 10.3156C284.827 13.4982 282.594 16.2161 278.876 16.2161C275.158 16.2161 272.955 13.4982 272.955 10.3156ZM281.765 10.3156C281.765 8.57785 280.745 7.06233 278.886 7.06233C277.027 7.06233 276.027 8.57785 276.027 10.3156C276.027 12.0534 277.047 13.5892 278.886 13.5892C280.725 13.5892 281.765 12.0736 281.765 10.3156Z" fill="#05BB6D"/>
<path d="M285.989 15.9333V4.70831H288.939V6.21373C289.747 5.23369 291.121 4.42542 292.516 4.42542V7.30491C292.303 7.25439 292.051 7.23418 291.707 7.23418C290.727 7.23418 289.434 7.78987 288.939 8.51732V15.9232H285.989V15.9333Z" fill="#05BB6D"/>
<path d="M295.052 17.6811C295.304 17.8024 295.698 17.863 295.981 17.863C296.749 17.863 297.264 17.6508 297.537 17.0547L297.951 16.0747L293.395 4.71838H296.557L299.487 12.5284L302.437 4.71838H305.6L300.326 17.7721C299.487 19.8837 298.002 20.4394 296.072 20.4899C295.749 20.4899 294.981 20.4192 294.627 20.308L295.041 17.6811H295.052Z" fill="#05BB6D"/>
<path d="M46.834 24.6895C46.3613 24.6895 45.9355 24.7715 45.5566 24.9355C45.1816 25.0957 44.8613 25.3301 44.5957 25.6387C44.334 25.9434 44.1328 26.3125 43.9922 26.7461C43.8516 27.1797 43.7812 27.668 43.7812 28.2109C43.7812 28.9297 43.8926 29.5547 44.1152 30.0859C44.3418 30.6133 44.6777 31.0215 45.123 31.3105C45.5723 31.5996 46.1328 31.7441 46.8047 31.7441C47.1875 31.7441 47.5469 31.7129 47.8828 31.6504C48.2227 31.584 48.5527 31.502 48.873 31.4043V32.2715C48.5605 32.3887 48.2324 32.4746 47.8887 32.5293C47.5449 32.5879 47.1367 32.6172 46.6641 32.6172C45.793 32.6172 45.0645 32.4375 44.4785 32.0781C43.8965 31.7148 43.459 31.2031 43.166 30.543C42.877 29.8828 42.7324 29.1035 42.7324 28.2051C42.7324 27.5566 42.8223 26.9648 43.002 26.4297C43.1855 25.8906 43.4512 25.4258 43.7988 25.0352C44.1504 24.6445 44.5801 24.3438 45.0879 24.1328C45.5996 23.918 46.1855 23.8105 46.8457 23.8105C47.2793 23.8105 47.6973 23.8535 48.0996 23.9395C48.502 24.0254 48.8652 24.1484 49.1895 24.3086L48.791 25.1523C48.5176 25.0273 48.2168 24.9199 47.8887 24.8301C47.5645 24.7363 47.2129 24.6895 46.834 24.6895ZM56.1211 29.2773C56.1211 29.8047 56.0527 30.2754 55.916 30.6895C55.7793 31.1035 55.582 31.4531 55.3242 31.7383C55.0664 32.0234 54.7539 32.2422 54.3867 32.3945C54.0234 32.543 53.6113 32.6172 53.1504 32.6172C52.7207 32.6172 52.3262 32.543 51.9668 32.3945C51.6113 32.2422 51.3027 32.0234 51.041 31.7383C50.7832 31.4531 50.582 31.1035 50.4375 30.6895C50.2969 30.2754 50.2266 29.8047 50.2266 29.2773C50.2266 28.5742 50.3457 27.9766 50.584 27.4844C50.8223 26.9883 51.1621 26.6113 51.6035 26.3535C52.0488 26.0918 52.5781 25.9609 53.1914 25.9609C53.7773 25.9609 54.2891 26.0918 54.7266 26.3535C55.168 26.6152 55.5098 26.9941 55.752 27.4902C55.998 27.9824 56.1211 28.5781 56.1211 29.2773ZM51.2344 29.2773C51.2344 29.793 51.3027 30.2402 51.4395 30.6191C51.5762 30.998 51.7871 31.291 52.0723 31.498C52.3574 31.7051 52.7246 31.8086 53.1738 31.8086C53.6191 31.8086 53.9844 31.7051 54.2695 31.498C54.5586 31.291 54.7715 30.998 54.9082 30.6191C55.0449 30.2402 55.1133 29.793 55.1133 29.2773C55.1133 28.7656 55.0449 28.3242 54.9082 27.9531C54.7715 27.5781 54.5605 27.2891 54.2754 27.0859C53.9902 26.8828 53.6211 26.7812 53.168 26.7812C52.5 26.7812 52.0098 27.002 51.6973 27.4434C51.3887 27.8848 51.2344 28.4961 51.2344 29.2773ZM60.7207 25.9609C60.8496 25.9609 60.9844 25.9688 61.125 25.9844C61.2656 25.9961 61.3906 26.0137 61.5 26.0371L61.377 26.9395C61.2715 26.9121 61.1543 26.8906 61.0254 26.875C60.8965 26.8594 60.7754 26.8516 60.6621 26.8516C60.4043 26.8516 60.1602 26.9043 59.9297 27.0098C59.7031 27.1113 59.5039 27.2598 59.332 27.4551C59.1602 27.6465 59.0254 27.8789 58.9277 28.1523C58.8301 28.4219 58.7812 28.7227 58.7812 29.0547V32.5H57.8027V26.0781H58.6113L58.7168 27.2617H58.7578C58.8906 27.0234 59.0508 26.8066 59.2383 26.6113C59.4258 26.4121 59.6426 26.2539 59.8887 26.1367C60.1387 26.0195 60.416 25.9609 60.7207 25.9609ZM65.1855 25.9609C65.7324 25.9609 66.2012 26.082 66.5918 26.3242C66.9824 26.5664 67.2812 26.9062 67.4883 27.3438C67.6953 27.7773 67.7988 28.2852 67.7988 28.8672V29.4707H63.3633C63.375 30.2246 63.5625 30.7988 63.9258 31.1934C64.2891 31.5879 64.8008 31.7852 65.4609 31.7852C65.8672 31.7852 66.2266 31.748 66.5391 31.6738C66.8516 31.5996 67.1758 31.4902 67.5117 31.3457V32.2012C67.1875 32.3457 66.8652 32.4512 66.5449 32.5176C66.2285 32.584 65.8535 32.6172 65.4199 32.6172C64.8027 32.6172 64.2637 32.4922 63.8027 32.2422C63.3457 31.9883 62.9902 31.6172 62.7363 31.1289C62.4824 30.6406 62.3555 30.043 62.3555 29.3359C62.3555 28.6445 62.4707 28.0469 62.7012 27.543C62.9355 27.0352 63.2637 26.6445 63.6855 26.3711C64.1113 26.0977 64.6113 25.9609 65.1855 25.9609ZM65.1738 26.7578C64.6543 26.7578 64.2402 26.9277 63.9316 27.2676C63.623 27.6074 63.4395 28.082 63.3809 28.6914H66.7793C66.7754 28.3086 66.7148 27.9727 66.5977 27.6836C66.4844 27.3906 66.3105 27.1641 66.0762 27.0039C65.8418 26.8398 65.541 26.7578 65.1738 26.7578Z" fill="#6A6A62"/>
</svg>
