<svg width="311" height="38" viewBox="0 0 311 38" fill="none" xmlns="http://www.w3.org/2000/svg">
<path d="M34 14.47V17.89L25.96 22.59L23.92 23.78H23.91L20.99 25.49L18.06 23.78L16.02 22.58L8 17.89V14.48L11 16.23V16.26L18.93 20.88L20.98 22.08L20.99 22.09L21.01 22.08L23.05 20.89L30.99 16.26V16.23L34 14.47Z" fill="#05BB6D"/>
<path d="M34 19.98V23.4L25.96 28.1L23.92 29.29H23.91L20.99 31L18.06 29.29L16.02 28.1L8 23.4V19.99L11 21.74V21.77L18.93 26.39L20.98 27.59L20.99 27.6L21.01 27.59L23.05 26.4L30.99 21.77V21.74L34 19.98Z" fill="white"/>
<path d="M30.99 5.38989V10.7399L23.05 15.3699L21.01 16.5599H21H20.99L18.94 15.3599L11.01 10.7399V5.38989H8V12.3799L16.03 17.0699L18.07 18.2599L21 19.9699L23.92 18.2599L25.96 17.0699L34 12.3699V5.38989H30.99Z" fill="white"/>
<path d="M21.47 11.7V6.09C21.83 5.55 22.81 5.12 23.53 5.12C23.79 5.12 23.98 5.14 24.14 5.17V3C23.1 3 22.08 3.61 21.47 4.35V3.21H19.27V11.7H21.47Z" fill="#05B96C"/>
<path d="M47 16.2259L48.1114 14.4881C48.8995 15.2964 50.4554 16.0441 51.9002 16.0441C53.345 16.0441 54.133 15.4378 54.133 14.5588C54.133 12.3563 47.3536 13.9324 47.3536 9.60815C47.3536 7.76931 48.9298 6.21338 51.7688 6.21338C53.6784 6.21338 55.1131 6.89031 56.1133 7.76931L55.0929 9.4869C54.4159 8.73925 53.1833 8.14314 51.7688 8.14314C50.4958 8.14314 49.6976 8.74935 49.6976 9.53742C49.6976 11.5076 56.4771 10.0224 56.4771 14.4881C56.4771 16.4886 54.8302 17.994 51.8093 17.994C49.8795 17.994 48.1619 17.3676 47 16.2259Z" fill="white"/>
<path d="M57.3157 12.0936C57.3157 8.86049 59.498 6.21338 63.0747 6.21338C66.6513 6.21338 68.8336 8.86049 68.8336 12.0936C68.8336 15.3267 66.6513 17.994 63.0747 17.994C59.498 17.994 57.3157 15.2964 57.3157 12.0936ZM66.3078 12.0936C66.3078 10.1133 65.1661 8.37552 63.0747 8.37552C60.9832 8.37552 59.8415 10.1133 59.8415 12.0936C59.8415 14.0739 61.0034 15.8319 63.0747 15.8319C65.1459 15.8319 66.3078 14.0941 66.3078 12.0936Z" fill="white"/>
<path d="M78.2299 17.7112V10.6994C78.2299 8.93131 77.3206 8.37562 75.9566 8.37562C74.724 8.37562 73.653 9.12327 73.0771 9.86083V17.7112H70.6321V6.48627H73.0771V7.99168C73.8248 7.11268 75.2797 6.20337 77.0478 6.20337C79.4625 6.20337 80.6749 7.50672 80.6749 9.80021V17.7011H78.24L78.2299 17.7112Z" fill="white"/>
<path d="M90.1216 17.711V16.4784C89.283 17.4585 87.9594 17.9939 86.4742 17.9939C84.6657 17.9939 82.5945 16.7411 82.5945 14.2759C82.5945 11.6692 84.6354 10.6083 86.4742 10.6083C88.0099 10.6083 89.283 11.0933 90.1216 12.0531V10.3759C90.1216 9.07257 89.0304 8.2845 87.4947 8.2845C86.2418 8.2845 85.1204 8.74926 84.1706 9.72929L83.1502 8.03191C84.4535 6.77908 86.0802 6.22339 87.8685 6.22339C90.3742 6.22339 92.5565 7.27415 92.5565 10.2648V17.7211H90.1216V17.711ZM90.1216 15.1549V13.4373C89.5356 12.6694 88.4949 12.2754 87.4543 12.2754C86.0802 12.2754 85.0395 13.0836 85.0395 14.2961C85.0395 15.5085 86.0903 16.3168 87.4543 16.3168C88.505 16.3168 89.5457 15.9227 90.1216 15.1549Z" fill="white"/>
<path d="M96.0019 15.0943V8.60789H94.1428V6.49626H96.0019V3.4248H98.4469V6.49626H100.72V8.60789H98.4469V14.4881C98.4469 15.256 98.8207 15.8319 99.5179 15.8319C99.9826 15.8319 100.397 15.6197 100.589 15.4176L101.175 17.2767C100.73 17.6707 100.013 17.994 98.9016 17.994C96.992 17.994 96.0221 16.9736 96.0221 15.0842L96.0019 15.0943Z" fill="white"/>
<path d="M103.135 19.9236C103.387 20.0449 103.782 20.1055 104.064 20.1055C104.852 20.1055 105.368 19.8731 105.691 19.1254L106.247 17.8524L101.619 6.49609H104.246L107.52 14.9022L110.793 6.49609H113.4L107.985 19.7417C107.217 21.6412 105.893 22.2474 104.155 22.2777C103.802 22.2777 103.105 22.207 102.781 22.1161L103.125 19.9337L103.135 19.9236Z" fill="white"/>
<path d="M117.108 16.1552V21.9849H114.663V6.48617H117.108V8.0219C117.946 6.91052 119.25 6.21338 120.705 6.21338C123.615 6.21338 125.676 8.39573 125.676 12.0936C125.676 15.7915 123.604 17.994 120.705 17.994C119.29 17.994 118.037 17.3474 117.108 16.1552ZM123.17 12.0936C123.17 9.91125 121.917 8.37552 119.987 8.37552C118.846 8.37552 117.664 9.02214 117.108 9.86073V14.2962C117.643 15.1347 118.846 15.8319 119.987 15.8319C121.917 15.8319 123.17 14.2759 123.17 12.0936Z" fill="white"/>
<path d="M126.999 12.0936C126.999 8.84028 129.373 6.21338 132.687 6.21338C136.001 6.21338 138.194 8.76956 138.194 12.3058V12.912H129.555C129.737 14.5892 131 16.0036 133.112 16.0036C134.223 16.0036 135.506 15.5591 136.315 14.7508L137.426 16.3573C136.284 17.4282 134.637 18.0041 132.869 18.0041C129.474 18.0041 126.989 15.6601 126.989 12.1037L126.999 12.0936ZM132.667 8.21387C130.596 8.21387 129.626 9.82032 129.535 11.1641H135.85C135.779 9.84053 134.87 8.21387 132.667 8.21387Z" fill="white"/>
<path d="M153.147 17.711V10.9316C153.147 9.37567 152.339 8.84019 151.076 8.84019C149.914 8.84019 149.035 9.48681 148.52 10.1435V17.7211H145.57V6.49618H148.52V7.94098C149.237 7.10239 150.631 6.22339 152.45 6.22339C154.935 6.22339 156.118 7.61767 156.118 9.80002V17.7211H153.147V17.711Z" fill="#05BB6D"/>
<path d="M157.259 12.0936C157.259 8.84028 159.674 6.21338 163.069 6.21338C166.464 6.21338 168.696 8.71904 168.696 12.3664V13.0635H160.351C160.563 14.4376 161.674 15.5692 163.584 15.5692C164.534 15.5692 165.837 15.1752 166.554 14.478L167.878 16.428C166.767 17.4484 164.999 17.9839 163.251 17.9839C159.836 17.9839 157.259 15.6803 157.259 12.0835V12.0936ZM163.069 8.62811C161.23 8.62811 160.442 9.90115 160.331 11.0226H165.857C165.766 9.95166 165.019 8.62811 163.069 8.62811Z" fill="#05BB6D"/>
<path d="M176.83 17.7109L174.273 13.9221L171.697 17.7109H168.424L172.425 11.952L168.656 6.49609H171.96L174.284 9.93128L176.587 6.49609H179.891L176.153 11.952L180.154 17.7109H176.85H176.83Z" fill="#05BB6D"/>
<path d="M188.58 17.711V16.2966C187.812 17.1351 186.468 17.9939 184.63 17.9939C182.164 17.9939 181.002 16.6502 181.002 14.4577V6.48608H183.953V13.2958C183.953 14.8518 184.761 15.367 186.024 15.367C187.166 15.367 188.065 14.7406 188.58 14.094V6.49619H191.53V17.7211H188.58V17.711Z" fill="#05BB6D"/>
<path d="M192.904 16.2562L194.187 14.1143C195.026 14.9024 196.673 15.6702 198.067 15.6702C199.34 15.6702 199.946 15.1853 199.946 14.4881C199.946 12.6493 193.298 14.1648 193.298 9.74959C193.298 7.87035 194.925 6.21338 197.895 6.21338C199.775 6.21338 201.29 6.86 202.401 7.74911L201.219 9.84053C200.542 9.14339 199.269 8.53718 197.895 8.53718C196.824 8.53718 196.127 9.00194 196.127 9.62835C196.127 11.2752 202.795 9.88094 202.795 14.4174C202.795 16.4886 201.027 17.994 197.915 17.994C195.965 17.994 194.086 17.3474 192.894 16.2562H192.904Z" fill="#05BB6D"/>
<path d="M209.797 17.7112V6.48627H212.748V7.99168C213.556 7.01165 214.93 6.20337 216.324 6.20337V9.08286C216.112 9.03234 215.859 9.01214 215.516 9.01214C214.536 9.01214 213.243 9.56783 212.748 10.2953V17.7011H209.797V17.7112Z" fill="#05BB6D"/>
<path d="M216.87 12.0936C216.87 8.84028 219.284 6.21338 222.679 6.21338C226.074 6.21338 228.307 8.71904 228.307 12.3664V13.0635H219.961C220.173 14.4376 221.285 15.5692 223.194 15.5692C224.144 15.5692 225.447 15.1752 226.165 14.478L227.488 16.428C226.377 17.4484 224.609 17.9839 222.861 17.9839C219.446 17.9839 216.87 15.6803 216.87 12.0835V12.0936ZM222.679 8.62811C220.84 8.62811 220.052 9.90115 219.941 11.0226H225.468C225.377 9.95166 224.629 8.62811 222.679 8.62811Z" fill="#05BB6D"/>
<path d="M232.692 16.2764V21.995H229.741V6.49628H232.692V7.91076C233.55 6.81959 234.783 6.21338 236.157 6.21338C239.037 6.21338 241.128 8.35531 241.128 12.0936C241.128 15.8319 239.037 17.994 236.157 17.994C234.834 17.994 233.621 17.4383 232.692 16.2764ZM238.077 12.0936C238.077 10.1638 236.915 8.84028 235.218 8.84028C234.268 8.84028 233.197 9.37577 232.682 10.1133V14.0638C233.167 14.7811 234.258 15.3671 235.218 15.3671C236.915 15.3671 238.077 14.0436 238.077 12.0936Z" fill="#05BB6D"/>
<path d="M242.098 12.0936C242.098 8.91101 244.331 6.21338 248.019 6.21338C251.707 6.21338 253.97 8.91101 253.97 12.0936C253.97 15.2762 251.737 17.994 248.019 17.994C244.301 17.994 242.098 15.2762 242.098 12.0936ZM250.908 12.0936C250.908 10.3558 249.888 8.84028 248.029 8.84028C246.17 8.84028 245.17 10.3558 245.17 12.0936C245.17 13.8314 246.19 15.3671 248.029 15.3671C249.868 15.3671 250.908 13.8516 250.908 12.0936Z" fill="#05BB6D"/>
<path d="M254.626 16.2562L255.909 14.1143C256.748 14.9024 258.395 15.6702 259.789 15.6702C261.062 15.6702 261.668 15.1853 261.668 14.4881C261.668 12.6493 255.02 14.1648 255.02 9.74959C255.02 7.87035 256.647 6.21338 259.617 6.21338C261.497 6.21338 263.012 6.86 264.124 7.74911L262.941 9.84053C262.265 9.14339 260.991 8.53718 259.617 8.53718C258.546 8.53718 257.849 9.00194 257.849 9.62835C257.849 11.2752 264.518 9.88094 264.518 14.4174C264.518 16.4886 262.75 17.994 259.638 17.994C257.688 17.994 255.808 17.3474 254.616 16.2562H254.626Z" fill="#05BB6D"/>
<path d="M265.821 3.51563C265.821 2.53559 266.609 1.77783 267.559 1.77783C268.509 1.77783 269.327 2.5457 269.327 3.51563C269.327 4.48556 268.539 5.28374 267.559 5.28374C266.579 5.28374 265.821 4.49567 265.821 3.51563ZM266.104 17.711V6.48605H269.054V17.711H266.104Z" fill="#05BB6D"/>
<path d="M272.469 14.9024V9.07265H270.61V6.49626H272.469V3.4248H275.419V6.49626H277.693V9.07265H275.419V14.1143C275.419 14.8316 275.793 15.3671 276.44 15.3671C276.884 15.3671 277.299 15.2055 277.46 15.0236L278.087 17.2767C277.642 17.6707 276.854 17.994 275.621 17.994C273.55 17.994 272.459 16.923 272.459 14.9024H272.469Z" fill="#05BB6D"/>
<path d="M277.955 12.0936C277.955 8.91101 280.188 6.21338 283.876 6.21338C287.564 6.21338 289.827 8.91101 289.827 12.0936C289.827 15.2762 287.594 17.994 283.876 17.994C280.158 17.994 277.955 15.2762 277.955 12.0936ZM286.766 12.0936C286.766 10.3558 285.745 8.84028 283.886 8.84028C282.027 8.84028 281.027 10.3558 281.027 12.0936C281.027 13.8314 282.047 15.3671 283.886 15.3671C285.725 15.3671 286.766 13.8516 286.766 12.0936Z" fill="#05BB6D"/>
<path d="M290.989 17.7112V6.48627H293.939V7.99168C294.747 7.01165 296.121 6.20337 297.516 6.20337V9.08286C297.303 9.03234 297.051 9.01214 296.707 9.01214C295.727 9.01214 294.434 9.56783 293.939 10.2953V17.7011H290.989V17.7112Z" fill="#05BB6D"/>
<path d="M300.052 19.4588C300.304 19.5801 300.698 19.6407 300.981 19.6407C301.749 19.6407 302.264 19.4285 302.537 18.8324L302.951 17.8524L298.395 6.49609H301.557L304.487 14.3061L307.437 6.49609H310.6L305.326 19.5498C304.487 21.6614 303.002 22.2171 301.072 22.2676C300.749 22.2676 299.981 22.1969 299.627 22.0858L300.041 19.4588H300.052Z" fill="#05BB6D"/>
<path d="M51.4312 26.0625C50.9979 26.0625 50.6076 26.1377 50.2603 26.2881C49.9165 26.4349 49.6229 26.6497 49.3794 26.9326C49.1395 27.2119 48.9551 27.5503 48.8262 27.9478C48.6973 28.3452 48.6328 28.7928 48.6328 29.2905C48.6328 29.9494 48.7349 30.5223 48.939 31.0093C49.1466 31.4927 49.4546 31.8669 49.8628 32.1318C50.2746 32.3968 50.7884 32.5293 51.4043 32.5293C51.7552 32.5293 52.0846 32.5007 52.3926 32.4434C52.7041 32.3825 53.0067 32.3073 53.3003 32.2178V33.0127C53.0138 33.1201 52.7131 33.1989 52.3979 33.249C52.0828 33.3027 51.7087 33.3296 51.2754 33.3296C50.4769 33.3296 49.8091 33.1649 49.272 32.8354C48.7384 32.5024 48.3374 32.0334 48.0688 31.4282C47.8039 30.8231 47.6714 30.1087 47.6714 29.2852C47.6714 28.6908 47.7537 28.1483 47.9185 27.6577C48.0868 27.1636 48.3302 26.7375 48.6489 26.3794C48.9712 26.0213 49.3651 25.7456 49.8306 25.5522C50.2996 25.3553 50.8368 25.2568 51.4419 25.2568C51.8394 25.2568 52.2225 25.2962 52.5913 25.375C52.9601 25.4538 53.2931 25.5666 53.5903 25.7134L53.2251 26.4868C52.9744 26.3722 52.6987 26.2738 52.3979 26.1914C52.1007 26.1055 51.7785 26.0625 51.4312 26.0625ZM59.9443 30.2681C59.9443 30.7515 59.8817 31.1829 59.7563 31.5625C59.631 31.9421 59.4502 32.2625 59.2139 32.5239C58.9775 32.7853 58.6911 32.9858 58.3545 33.1255C58.0215 33.2616 57.6437 33.3296 57.2212 33.3296C56.8273 33.3296 56.4657 33.2616 56.1362 33.1255C55.8104 32.9858 55.5275 32.7853 55.2876 32.5239C55.0513 32.2625 54.8669 31.9421 54.7344 31.5625C54.6055 31.1829 54.541 30.7515 54.541 30.2681C54.541 29.6235 54.6502 29.0757 54.8687 28.6245C55.0871 28.1698 55.3986 27.8242 55.8032 27.5879C56.2114 27.348 56.6966 27.228 57.2588 27.228C57.7959 27.228 58.265 27.348 58.666 27.5879C59.0706 27.8278 59.384 28.1751 59.606 28.6299C59.8315 29.0811 59.9443 29.6271 59.9443 30.2681ZM55.4648 30.2681C55.4648 30.7407 55.5275 31.1507 55.6528 31.498C55.7782 31.8454 55.9715 32.1139 56.2329 32.3037C56.4943 32.4935 56.8309 32.5884 57.2427 32.5884C57.6509 32.5884 57.9857 32.4935 58.2471 32.3037C58.512 32.1139 58.7072 31.8454 58.8325 31.498C58.9578 31.1507 59.0205 30.7407 59.0205 30.2681C59.0205 29.799 58.9578 29.3944 58.8325 29.0542C58.7072 28.7104 58.5138 28.4455 58.2524 28.2593C57.991 28.0731 57.6527 27.98 57.2373 27.98C56.625 27.98 56.1756 28.1823 55.8892 28.5869C55.6063 28.9915 55.4648 29.5519 55.4648 30.2681ZM67.8774 27.228C68.5256 27.228 69.0143 27.3981 69.3438 27.7383C69.6732 28.0749 69.8379 28.6174 69.8379 29.3657V33.2222H68.957V29.4087C68.957 28.9325 68.8532 28.5762 68.6455 28.3398C68.4414 28.0999 68.137 27.98 67.7324 27.98C67.1631 27.98 66.7495 28.1447 66.4917 28.4741C66.2339 28.8035 66.105 29.2887 66.105 29.9297V33.2222H65.2188V29.4087C65.2188 29.09 65.1722 28.825 65.0791 28.6138C64.9896 28.4025 64.8535 28.245 64.6709 28.1411C64.4919 28.0337 64.2645 27.98 63.9888 27.98C63.5985 27.98 63.2852 28.0605 63.0488 28.2217C62.8125 28.3828 62.6406 28.6227 62.5332 28.9414C62.4294 29.2565 62.3774 29.645 62.3774 30.1069V33.2222H61.4858V27.3354H62.2056L62.3398 28.168H62.3882C62.5063 27.9639 62.6549 27.792 62.834 27.6523C63.013 27.5127 63.2135 27.4071 63.4355 27.3354C63.6576 27.2638 63.8939 27.228 64.1445 27.228C64.5921 27.228 64.9663 27.3122 65.2671 27.4805C65.5715 27.6452 65.7917 27.8976 65.9277 28.2378H65.9761C66.1694 27.8976 66.4344 27.6452 66.771 27.4805C67.1076 27.3122 67.4764 27.228 67.8774 27.228ZM78.061 27.228C78.7091 27.228 79.1979 27.3981 79.5273 27.7383C79.8568 28.0749 80.0215 28.6174 80.0215 29.3657V33.2222H79.1406V29.4087C79.1406 28.9325 79.0368 28.5762 78.8291 28.3398C78.625 28.0999 78.3206 27.98 77.916 27.98C77.3467 27.98 76.9331 28.1447 76.6753 28.4741C76.4175 28.8035 76.2886 29.2887 76.2886 29.9297V33.2222H75.4023V29.4087C75.4023 29.09 75.3558 28.825 75.2627 28.6138C75.1732 28.4025 75.0371 28.245 74.8545 28.1411C74.6755 28.0337 74.4481 27.98 74.1724 27.98C73.7821 27.98 73.4688 28.0605 73.2324 28.2217C72.9961 28.3828 72.8242 28.6227 72.7168 28.9414C72.613 29.2565 72.561 29.645 72.561 30.1069V33.2222H71.6694V27.3354H72.3892L72.5234 28.168H72.5718C72.6899 27.9639 72.8385 27.792 73.0176 27.6523C73.1966 27.5127 73.3971 27.4071 73.6191 27.3354C73.8411 27.2638 74.0775 27.228 74.3281 27.228C74.7757 27.228 75.1499 27.3122 75.4507 27.4805C75.755 27.6452 75.9753 27.8976 76.1113 28.2378H76.1597C76.353 27.8976 76.618 27.6452 76.9546 27.4805C77.2912 27.3122 77.66 27.228 78.061 27.228ZM86.7139 27.3354V33.2222H85.9834L85.8545 32.395H85.8062C85.6844 32.5991 85.5269 32.771 85.3335 32.9106C85.1401 33.0503 84.9217 33.1541 84.6782 33.2222C84.4383 33.2938 84.1823 33.3296 83.9102 33.3296C83.4447 33.3296 83.0544 33.2544 82.7393 33.104C82.4242 32.9536 82.186 32.7209 82.0249 32.4058C81.8674 32.0907 81.7886 31.686 81.7886 31.1919V27.3354H82.6909V31.1274C82.6909 31.618 82.8019 31.985 83.0239 32.2285C83.2459 32.4684 83.5843 32.5884 84.0391 32.5884C84.4759 32.5884 84.8232 32.506 85.0811 32.3413C85.3424 32.1766 85.5304 31.9349 85.645 31.6162C85.7596 31.2939 85.8169 30.9001 85.8169 30.4346V27.3354H86.7139ZM91.3867 27.228C92.085 27.228 92.6131 27.3999 92.9712 27.7437C93.3293 28.0838 93.5083 28.6317 93.5083 29.3872V33.2222H92.6274V29.4463C92.6274 28.9557 92.5146 28.5887 92.2891 28.3452C92.0671 28.1017 91.7251 27.98 91.2632 27.98C90.6115 27.98 90.1532 28.1644 89.8882 28.5332C89.6232 28.902 89.4907 29.4373 89.4907 30.1392V33.2222H88.5991V27.3354H89.3188L89.4531 28.1841H89.5015C89.6268 27.9764 89.7861 27.8027 89.9795 27.6631C90.1729 27.5199 90.3895 27.4124 90.6294 27.3408C90.8693 27.2656 91.1217 27.228 91.3867 27.228ZM96.2368 27.3354V33.2222H95.3452V27.3354H96.2368ZM95.8018 25.1333C95.9486 25.1333 96.0739 25.1816 96.1777 25.2783C96.2852 25.3714 96.3389 25.5182 96.3389 25.7188C96.3389 25.9157 96.2852 26.0625 96.1777 26.1592C96.0739 26.2559 95.9486 26.3042 95.8018 26.3042C95.6478 26.3042 95.5189 26.2559 95.415 26.1592C95.3148 26.0625 95.2646 25.9157 95.2646 25.7188C95.2646 25.5182 95.3148 25.3714 95.415 25.2783C95.5189 25.1816 95.6478 25.1333 95.8018 25.1333ZM100.029 32.5991C100.176 32.5991 100.326 32.5866 100.48 32.5615C100.634 32.5365 100.759 32.506 100.856 32.4702V33.1631C100.752 33.2096 100.607 33.249 100.421 33.2812C100.238 33.3135 100.059 33.3296 99.8838 33.3296C99.5723 33.3296 99.2894 33.2759 99.0352 33.1685C98.7809 33.0575 98.5768 32.8713 98.4229 32.6099C98.2725 32.3485 98.1973 31.9868 98.1973 31.5249V28.0337H97.3594V27.5986L98.2026 27.2495L98.5571 25.9712H99.0942V27.3354H100.818V28.0337H99.0942V31.498C99.0942 31.8669 99.1784 32.1426 99.3467 32.3252C99.5186 32.5078 99.7459 32.5991 100.029 32.5991ZM101.119 27.3354H102.075L103.375 30.7515C103.45 30.952 103.52 31.1453 103.584 31.3315C103.649 31.5142 103.706 31.6896 103.756 31.8579C103.806 32.0262 103.846 32.1891 103.875 32.3467H103.912C103.962 32.1676 104.034 31.9331 104.127 31.6431C104.22 31.3494 104.32 31.0505 104.428 30.7461L105.658 27.3354H106.619L104.057 34.0869C103.921 34.4486 103.762 34.7637 103.579 35.0322C103.4 35.3008 103.182 35.5067 102.924 35.6499C102.666 35.7967 102.354 35.8701 101.989 35.8701C101.821 35.8701 101.672 35.8594 101.543 35.8379C101.415 35.82 101.304 35.7985 101.21 35.7734V35.0591C101.289 35.077 101.384 35.0931 101.495 35.1074C101.61 35.1217 101.728 35.1289 101.85 35.1289C102.072 35.1289 102.263 35.0859 102.424 35C102.589 34.9176 102.73 34.7959 102.849 34.6348C102.967 34.4736 103.069 34.2821 103.155 34.0601L103.477 33.2329L101.119 27.3354Z" fill="#F7F7F6"/>
</svg>
